<svg xmlns="http://www.w3.org/2000/svg" width="21.333" height="21.333" preserveAspectRatio="xMidYMid meet" version="1.0" viewBox="0 0 16 16"><metadata>Created by potrace 1.11, written by Peter Selinger 2001-2013</metadata><g fill="#000" stroke="none"><path d="M377 5105 c-174 -48 -327 -205 -366 -375 -15 -63 -15 -4277 0 -4340 40 -173 193 -328 370 -375 81 -22 4277 -22 4358 0 176 46 320 190 366 366 22 81 22 4277 0 4358 -46 176 -190 320 -366 366 -77 21 -4287 21 -4362 0z m1138 -2277 c312 -480 574 -880 581 -888 12 -12 14 125 14 873 l0 887 150 0 150 0 0 -1145 0 -1145 -152 0 -153 1 -574 880 c-316 484 -578 882 -583 885 -4 3 -8 -393 -8 -880 l0 -886 -145 0 -145 0 0 1145 0 1145 148 0 148 0 569 -872z m2975 752 l0 -120 -370 0 -370 0 0 -1025 0 -1025 -150 0 -150 0 0 1025 0 1025 -365 0 -365 0 0 120 0 120 885 0 885 0 0 -120z" transform="translate(0.000000,16.000000) scale(0.003125,-0.003125)"/></g></svg>