<?xml version="1.0" standalone="no"?>
<!DOCTYPE svg PUBLIC "-//W3C//DTD SVG 20010904//EN"
 "http://www.w3.org/TR/2001/REC-SVG-20010904/DTD/svg10.dtd">
<svg version="1.0" xmlns="http://www.w3.org/2000/svg"
 width="16.000000pt" height="16.000000pt" viewBox="0 0 16.000000 16.000000"
 preserveAspectRatio="xMidYMid meet">
<metadata>
Created by potrace 1.11, written by Peter Selinger 2001-2013
</metadata>
<g transform="translate(0.000000,16.000000) scale(0.003125,-0.003125)"
fill="#000000" stroke="none">
<path d="M410 5109 c-195 -38 -356 -200 -400 -401 -6 -31 -10 -758 -10 -2150
0 -1704 3 -2113 14 -2158 46 -193 193 -340 386 -387 45 -10 451 -12 2185 -10
2046 2 2132 3 2180 21 154 57 271 172 328 323 l22 58 2 2130 c2 1488 -1 2145
-8 2180 -33 150 -147 292 -289 358 -106 48 -18 47 -2260 46 -1172 -1 -2125 -5
-2150 -10z"/>
</g>
</svg>
